<svg version="1.2" xmlns="http://www.w3.org/2000/svg" viewBox="0 0 140 211" width="140" height="211">
	<style>
		.s0 { fill: #556ee6 } 
	</style>
	<g>
		<path class="s0" d="m90.5 2.3c-2.2 0.8-5.8 2.3-8 3.4-5.3 2.8-24.1 20.2-51 47.5-24.3 24.5-27.9 29.4-29.4 40-1.9 13.6 2.1 24.8 12.4 35.3l6.4 6.5-5.5 6.2c-3 3.5-7.1 9.7-9.1 13.8-3.2 6.4-3.8 8.7-4.1 16-0.3 6.9 0 9.5 1.7 14 9.3 24.3 35.2 32.4 58.7 18.5 4.2-2.5 15.6-13.1 37.3-34.6 29.6-29.3 31.4-31.3 34.9-38.7 3.6-7.4 3.7-8.1 3.7-18.7 0-10.1-0.3-11.5-3-16.9-1.6-3.3-5.5-8.6-8.7-11.9-3.2-3.2-5.8-6.1-5.8-6.4 0-0.3 2.5-4.3 5.6-8.9 8.6-13 11.8-21.2 11.8-30.9 0.1-10-2.1-15.3-9.9-23.4-7.8-8.2-14.7-11.4-25.5-11.8-5.2-0.2-10 0.2-12.5 1zm14.3 27.3c6.4 3.8 8.2 10.5 4.4 16.7-1.2 1.8-13.4 14.3-27.3 27.7l-25.2 24.5 10.9 10.2c6 5.7 11.1 10.3 11.4 10.3 0.3 0 1.9-1.9 3.5-4.1 1.7-2.2 5.3-6.3 8.2-9 4.4-4.2 5.8-4.9 9.2-4.9 8.2 0 14.2 9 10.7 15.9-2.1 3.9-58.9 61.1-63.6 64-4.6 2.8-8.6 2.7-12.6-0.4-4.4-3.3-6-8.2-4.1-12.7 1.2-2.9 15.2-17.3 27.2-28.1l4-3.5-14.6-14.1c-10.4-10-15.1-15.2-16.3-18.1-3.1-7.9-2.8-8.3 31.6-42.7 17.2-17.2 32.4-31.7 33.8-32.2 3.6-1.4 5.9-1.3 8.8 0.5z"/>
	</g>
</svg>